<svg width="110" height="95" viewBox="0 0 110 95" fill="none" xmlns="http://www.w3.org/2000/svg">
<path d="M82.4568 0.247192C88.1536 0.247192 93.7123 2.2533 98.9675 6.20325C101.801 8.35561 104.076 11.1265 105.61 14.2931C107.319 17.7817 108.182 21.607 108.134 25.4728C108.189 29.3293 107.325 33.1458 105.61 36.6212C104.77 38.2888 103.737 39.8577 102.532 41.297C103.724 44.041 105.345 47.6653 107.351 52.089V52.1564C108.43 54.6359 108.897 56.3587 108.872 57.7491C108.872 60.2225 107.591 63.7296 101.484 66.1906C99.7095 67.0326 97.7777 67.5141 95.8064 67.6056C94.1859 67.6427 92.5928 67.1916 91.2449 66.3136C91.6987 67.9677 91.9009 69.6783 91.8445 71.3898V82.9933C91.917 84.8066 91.6822 86.6196 91.1501 88.3585C90.3109 90.8317 87.8316 93.754 80.8923 93.754H28.6111C21.6593 93.754 19.1925 90.8194 18.3533 88.3585C17.827 86.6185 17.5949 84.8061 17.6658 82.9933V71.4073C17.6165 69.6944 17.8291 67.984 18.2966 66.3322C16.9469 67.2109 15.3517 67.662 13.7292 67.6241C11.7338 67.5303 9.77784 67.0426 7.9812 66.1906C1.90608 63.7173 0.644346 60.2287 0.644287 57.7677C0.644287 56.3772 1.11761 54.6359 2.17749 52.1749L2.20874 52.1075C4.20233 47.7023 5.80536 44.1213 6.98511 41.4142C3.19985 37.0644 1.30643 31.7177 1.3064 25.4913C1.25804 21.6256 2.12136 17.8002 3.82983 14.3116C5.35403 11.1646 7.59699 8.39972 10.3855 6.22766C15.6469 2.27175 21.2234 0.265852 26.9011 0.265747H45.0017C46.863 0.265747 52.5342 0.266096 54.7107 4.33899L54.7615 4.43079C54.7821 4.38657 54.8053 4.34358 54.8308 4.30188C56.9821 0.247339 62.6286 0.247192 64.5212 0.247192H82.4568Z" fill="#010B13"/>
<g filter="url(#filter0_dii_18_33)">
<path d="M80.666 64.3877C84.5772 64.3836 86.8672 65.3904 87.5361 67.4082C87.9323 68.7886 88.1028 70.2221 88.041 71.6543V83.2393C88.1027 84.6714 87.9322 86.104 87.5361 87.4844C86.8674 89.5024 84.5774 90.5117 80.666 90.5117H28.3848C24.4734 90.5117 22.1897 89.5024 21.5146 87.4844C21.1213 86.1036 20.9534 84.671 21.0166 83.2393V71.6543C20.9534 70.2225 21.1213 68.789 21.5146 67.4082C22.1898 65.3904 24.4736 64.3877 28.3848 64.3877C31.9595 64.3877 34.1385 65.1216 34.9209 66.5898C35.3162 67.2597 35.5854 67.9935 35.7158 68.7559C35.8176 69.6917 35.8595 70.6333 35.8418 71.5742V76.0898C37.0214 76.0468 38.2894 76.0469 39.6709 76.0469H69.3857C70.7611 76.0469 72.0292 76.0591 73.209 76.0898V70.8682C73.2194 70.1628 73.2611 69.4579 73.335 68.7559C73.4713 67.995 73.7402 67.2622 74.1299 66.5898C74.9165 65.1216 77.0955 64.3877 80.666 64.3877ZM44.7734 4C48.3442 4 50.5277 4.73855 51.3037 6.20898C51.6979 6.87997 51.9685 7.61316 52.1045 8.375C52.203 9.31093 52.2449 10.2516 52.2305 11.1924V46.0596C52.2297 46.3541 52.2893 46.6456 52.4043 46.918C52.5193 47.1903 52.6881 47.4379 52.9014 47.6465C53.1147 47.8551 53.3684 48.0209 53.6475 48.1338C53.9264 48.2466 54.2254 48.3047 54.5273 48.3047C54.8299 48.3055 55.1295 48.2482 55.4092 48.1357C55.6888 48.0232 55.9433 47.858 56.1572 47.6494C56.3711 47.4408 56.5408 47.1926 56.6562 46.9199C56.7716 46.6472 56.8309 46.3546 56.8301 46.0596V10.4873C56.8404 9.78186 56.8822 9.07706 56.9561 8.375C57.0864 7.61264 57.3557 6.87886 57.751 6.20898C58.5333 4.73653 60.7122 4 64.2871 4H82.2168C87.1418 4.00413 91.9175 5.74815 96.5439 9.23047C98.943 11.0569 100.867 13.4093 102.159 16.0967C103.638 19.1032 104.382 22.403 104.335 25.7373C104.386 29.0581 103.641 32.3448 102.159 35.335C100.862 38.0069 98.9377 40.3442 96.5439 42.1582C91.9091 45.6446 87.1061 47.3886 82.1348 47.3887H71.6621V57.3223C71.6518 58.0277 71.61 58.7325 71.5361 59.4346C71.3998 60.1953 71.1309 60.9283 70.7412 61.6006C69.9547 63.0731 67.7758 63.8096 64.2051 63.8096C60.2936 63.8096 58.0037 62.8003 57.335 60.7822C57.2896 60.6657 57.251 60.5468 57.2207 60.4258C57.0921 59.9397 56.8031 59.5084 56.3984 59.1982C55.9938 58.8882 55.496 58.716 54.9814 58.709H54.0732C53.558 58.7139 53.0584 58.8848 52.6533 59.1953C52.2483 59.5058 51.9597 59.9388 51.833 60.4258C51.7952 60.5487 51.7575 60.6716 51.7197 60.7822C51.051 62.8003 48.761 63.8096 44.8496 63.8096C41.2746 63.8096 39.0958 63.0731 38.3135 61.6006C37.9182 60.9308 37.6489 60.1969 37.5186 59.4346C37.4447 58.7325 37.4029 58.0277 37.3926 57.3223V47.3887H26.8379L24.2764 47.2656C20.4786 56.0759 18.2996 60.9976 17.7402 62.0312C17.3324 62.6544 16.8057 63.1957 16.1885 63.625C15.4091 64.1694 14.4657 64.4443 13.5078 64.4062C12.0073 64.2993 10.5418 63.9105 9.19238 63.2617C5.73095 61.8261 4 60.0831 4 58.0322C4 57.1586 4.42066 55.7417 5.26172 53.7812C7.82297 48.1007 9.71554 43.8243 10.9395 40.9531C6.73358 36.9745 4.63086 31.9084 4.63086 25.7559C4.57811 22.415 5.32356 19.1082 6.80762 16.0967C8.08699 13.4243 9.97984 11.0747 12.3398 9.23047C16.9789 5.74401 21.7555 4 26.668 4H44.7734ZM99.3213 43.8506C100.526 46.6377 101.707 49.0744 103.833 53.7627C104.67 55.723 105.088 57.1401 105.088 58.0137C105.092 60.0809 103.361 61.824 99.8955 63.2432C98.5468 63.8934 97.0816 64.2822 95.5811 64.3877C94.6233 64.424 93.6798 64.1492 92.8994 63.6064C92.284 63.1771 91.7589 62.6358 91.3535 62.0127C90.8298 61.0466 89.3659 57.9518 86.0098 50.1631C90.4395 49.4207 94.6027 47.5887 98.1045 44.8408C98.5269 44.5272 98.9303 44.1949 99.3213 43.8506ZM26.8564 18.4775C25.0078 18.5144 23.2272 19.1655 21.8096 20.3232C20.1904 21.5455 19.3809 23.3564 19.3809 25.7559C19.3809 28.1431 20.1972 29.9378 21.8291 31.1396C23.1981 32.2497 24.9071 32.8842 26.6865 32.9424H37.4111V18.4775H26.8564ZM71.6621 32.9424H82.2422C84.0488 32.8961 85.7877 32.2614 87.1816 31.1396C88.805 29.9379 89.6171 28.1412 89.6172 25.75C89.6172 23.3588 88.805 21.5479 87.1816 20.3174C85.7644 19.1587 83.9837 18.5075 82.1348 18.4717H71.6621V32.9424Z" fill="url(#paint0_linear_18_33)"/>
</g>
<defs>
<filter id="filter0_dii_18_33" x="0" y="0" width="109.088" height="94.5117" filterUnits="userSpaceOnUse" color-interpolation-filters="sRGB">
<feFlood flood-opacity="0" result="BackgroundImageFix"/>
<feColorMatrix in="SourceAlpha" type="matrix" values="0 0 0 0 0 0 0 0 0 0 0 0 0 0 0 0 0 0 127 0" result="hardAlpha"/>
<feOffset/>
<feGaussianBlur stdDeviation="2"/>
<feComposite in2="hardAlpha" operator="out"/>
<feColorMatrix type="matrix" values="0 0 0 0 0.831373 0 0 0 0 0.686275 0 0 0 0 0.215686 0 0 0 1 0"/>
<feBlend mode="normal" in2="BackgroundImageFix" result="effect1_dropShadow_18_33"/>
<feBlend mode="normal" in="SourceGraphic" in2="effect1_dropShadow_18_33" result="shape"/>
<feColorMatrix in="SourceAlpha" type="matrix" values="0 0 0 0 0 0 0 0 0 0 0 0 0 0 0 0 0 0 127 0" result="hardAlpha"/>
<feOffset dx="4" dy="4"/>
<feGaussianBlur stdDeviation="2"/>
<feComposite in2="hardAlpha" operator="arithmetic" k2="-1" k3="1"/>
<feColorMatrix type="matrix" values="0 0 0 0 0.960784 0 0 0 0 0.960784 0 0 0 0 0.960784 0 0 0 0.4 0"/>
<feBlend mode="normal" in2="shape" result="effect2_innerShadow_18_33"/>
<feColorMatrix in="SourceAlpha" type="matrix" values="0 0 0 0 0 0 0 0 0 0 0 0 0 0 0 0 0 0 127 0" result="hardAlpha"/>
<feOffset dx="-4" dy="-4"/>
<feGaussianBlur stdDeviation="2"/>
<feComposite in2="hardAlpha" operator="arithmetic" k2="-1" k3="1"/>
<feColorMatrix type="matrix" values="0 0 0 0 0 0 0 0 0 0 0 0 0 0 0 0 0 0 0.3 0"/>
<feBlend mode="normal" in2="effect2_innerShadow_18_33" result="effect3_innerShadow_18_33"/>
</filter>
<linearGradient id="paint0_linear_18_33" x1="54.5439" y1="4" x2="54.5439" y2="90.5117" gradientUnits="userSpaceOnUse">
<stop stop-color="#D4AF37"/>
<stop offset="1" stop-color="#FEE79C"/>
</linearGradient>
</defs>
</svg>
